<svg height="69.56" viewBox="0 0 110.713 69.56" width="110.713" xmlns="http://www.w3.org/2000/svg"><g fill="#e64a19"><path d="m683.835 481.361a20 20 0 0 0 -6.681-1.072 21.523 21.523 0 0 0 -8.5 1.545 12.442 12.442 0 0 0 -5.539 4.339 10.994 10.994 0 0 0 -1.92 6.382 9.4 9.4 0 0 0 1.721 5.759 12.973 12.973 0 0 0 4.138 3.664 51.819 51.819 0 0 0 6.258 2.842q2.992 1.193 4.637 2.019a9.1 9.1 0 0 1 2.742 2.045 4.221 4.221 0 0 1 1.1 2.917 4.785 4.785 0 0 1 -2.393 4.261 12.317 12.317 0 0 1 -6.632 1.52 14.912 14.912 0 0 1 -6.357-1.1 3.542 3.542 0 0 1 -2.268-3.341 7.06 7.06 0 0 1 .075-1.047 5.471 5.471 0 0 0 .075-.7 8.984 8.984 0 0 0 .15-1.745 2.221 2.221 0 0 0 -.848-1.8 3.342 3.342 0 0 0 -2.194-.7 3.124 3.124 0 0 0 -2.792 1.448 7.663 7.663 0 0 0 -.948 4.188 8.479 8.479 0 0 0 3.989 7.7q3.988 2.517 10.62 2.518 7.479 0 11.942-3.166a10.429 10.429 0 0 0 4.462-9.051 8.516 8.516 0 0 0 -1.619-5.283 12.131 12.131 0 0 0 -3.915-3.391 63.081 63.081 0 0 0 -6.083-2.792q-3.142-1.246-4.887-2.144a9.667 9.667 0 0 1 -2.917-2.244 4.772 4.772 0 0 1 -1.172-3.238 5.06 5.06 0 0 1 2.268-4.413 11.474 11.474 0 0 1 6.557-1.57 10.672 10.672 0 0 1 5.086 1.1 3.458 3.458 0 0 1 2.045 3.191q0 .4-.15 1.895a9.507 9.507 0 0 0 -.15 1.745 2.482 2.482 0 0 0 .873 1.9 3.088 3.088 0 0 0 2.169.8 3.052 3.052 0 0 0 2.792-1.6 9.445 9.445 0 0 0 .948-4.737 8.157 8.157 0 0 0 -1.82-5.385 10.842 10.842 0 0 0 -4.862-3.259z" transform="translate(-657.64 -475.75)"/><path d="m822.52 492.528a3.054 3.054 0 0 0 -1.6-.3 3.238 3.238 0 0 0 -3.68 2.725q-.005.034-.01.067a60.609 60.609 0 0 1 -2.471 7.479 21.962 21.962 0 0 1 -2.394 4.537q-1.122 1.5-1.869 1.5-1.047 0-1.047-1.895a20.188 20.188 0 0 1 .3-3.068q.3-1.869.7-3.915.3-1.5.8-3.341a20.66 20.66 0 0 0 .549-2.692 1.279 1.279 0 0 0 -.426-1.047 2.471 2.471 0 0 0 -1.521-.349 4.92 4.92 0 0 0 -2.842.649 4.166 4.166 0 0 0 -1.4 2.144 42.926 42.926 0 0 0 -1.645 6.606 40.514 40.514 0 0 0 -.458 4.857 21.075 21.075 0 0 1 -2.682 2.574 5.779 5.779 0 0 1 -3.589 1.172 2.7 2.7 0 0 1 -2.095-.873 5.779 5.779 0 0 1 -1.14-2.92 76.282 76.282 0 0 0 8.925-15.508q3.29-7.827 3.29-13.761a12.169 12.169 0 0 0 -1.371-6.357 4.232 4.232 0 0 0 -3.764-2.215q-4.239 0-7.305 5.584a47.062 47.062 0 0 0 -4.636 13.363 70.832 70.832 0 0 0 -1.57 13.862 30.7 30.7 0 0 0 .295 4.4 23.99 23.99 0 0 1 -3.286 3.254 5.778 5.778 0 0 1 -3.589 1.171 2.7 2.7 0 0 1 -2.094-.872 5.778 5.778 0 0 1 -1.147-2.917 76.228 76.228 0 0 0 8.926-15.508q3.291-7.827 3.291-13.761a12.168 12.168 0 0 0 -1.371-6.357 4.233 4.233 0 0 0 -3.764-2.216q-4.239 0-7.305 5.585a47.086 47.086 0 0 0 -4.637 13.362 70.887 70.887 0 0 0 -1.57 13.862 30.7 30.7 0 0 0 .3 4.41 37.265 37.265 0 0 1 -2.988 3.194 3.791 3.791 0 0 1 -2.294 1.222 1.209 1.209 0 0 1 -.973-.449 1.807 1.807 0 0 1 -.374-1.193 48.354 48.354 0 0 1 1.148-7.978 37.4 37.4 0 0 0 .748-4.986q0-1.745-2.444-1.745a11.757 11.757 0 0 0 -2.194.2 3.591 3.591 0 0 0 -.623-1.521 1.942 1.942 0 0 0 -1.471-.426 11.079 11.079 0 0 0 -6.506 2.168 15.767 15.767 0 0 0 -4.911 5.734 16.2 16.2 0 0 0 -1.845 7.554 8.963 8.963 0 0 0 1.845 5.879 6.06 6.06 0 0 0 4.936 2.244q3.938 0 6.532-4.189a6.827 6.827 0 0 0 2.069 3.067 4.655 4.655 0 0 0 3.016 1.122 7.4 7.4 0 0 0 4.439-1.745 24.066 24.066 0 0 0 3.311-3.081c.128.285.256.567.4.837a6.923 6.923 0 0 0 6.507 3.989 9.992 9.992 0 0 0 5.709-1.7 20.7 20.7 0 0 0 3.628-3.147c.13.29.264.579.41.852a6.922 6.922 0 0 0 6.507 3.989 9.99 9.99 0 0 0 5.709-1.7 19.678 19.678 0 0 0 2.244-1.777 7.364 7.364 0 0 0 .746 1.4 4.285 4.285 0 0 0 3.664 2.069 5.252 5.252 0 0 0 3.789-1.87 12.673 12.673 0 0 0 2.792-5.46q-.449 3.44-.8 5.283l-.15 1.147a65.951 65.951 0 0 0 -8.252 7.255 21.657 21.657 0 0 0 -3.989 5.609 11.842 11.842 0 0 0 -1.072 4.787 5.512 5.512 0 0 0 1.6 4.117 5.648 5.648 0 0 0 4.139 1.57q5.385 0 8.626-7.479t5.086-20.293q.2-1.3 1.346-8.327 1.3-7.328 1.3-8.526a1.106 1.106 0 0 0 -.458-.987zm-63.52 13.412a8.411 8.411 0 0 1 -1.449 3.441 2.736 2.736 0 0 1 -2.094 1.3 2.121 2.121 0 0 1 -1.721-.748 3.531 3.531 0 0 1 -.622-2.294 13.5 13.5 0 0 1 1.047-5.283 10.576 10.576 0 0 1 2.817-4.014 6.049 6.049 0 0 1 3.864-1.57zm19.6-18a67.921 67.921 0 0 1 2.543-10.271q1.449-4.139 2.594-4.139 1.395 0 1.4 3.789a32.044 32.044 0 0 1 -2.094 10.7 64.307 64.307 0 0 1 -5.634 11.692 74.194 74.194 0 0 1 1.193-11.765zm16.254 0a67.83 67.83 0 0 1 2.543-10.271q1.449-4.139 2.593-4.139 1.395 0 1.4 3.789a32.035 32.035 0 0 1 -2.095 10.7 64.284 64.284 0 0 1 -5.637 11.695 74.177 74.177 0 0 1 1.193-11.767zm15.107 42.482q-1.547 2.891-2.792 2.892a1.147 1.147 0 0 1 -1.072-.548 2.709 2.709 0 0 1 -.324-1.4 8.983 8.983 0 0 1 1.72-4.662 28.34 28.34 0 0 1 5.56-5.908 42.449 42.449 0 0 1 -3.1 9.625z" transform="translate(-712.26 -468.595)"/></g></svg>